<?xml version="1.0" encoding="utf-8"?>
<!-- Generator: Adobe Illustrator 27.5.0, SVG Export Plug-In . SVG Version: 6.00 Build 0)  -->
<svg version="1.1" id="图层_1" xmlns="http://www.w3.org/2000/svg" xmlns:xlink="http://www.w3.org/1999/xlink" x="0px" y="0px"
	 viewBox="0 0 100 100" style="enable-background:new 0 0 100 100;" xml:space="preserve">
<style type="text/css">
	.st0{fill:none;}
	.st1{fill:#0000FF;}
	.st2{fill:#00008B;}
	.st3{fill:#1C71FF;}
	.st4{fill:none;stroke:#800080;stroke-width:6;stroke-linecap:square;}
	.st5{fill:none;stroke:#800080;stroke-width:6;stroke-linecap:square;stroke-dasharray:14.6339,14.6339;}
	.st6{fill:none;stroke:#800080;stroke-width:6;stroke-linecap:square;stroke-dasharray:12.6667,12.6667;}
	.st7{fill:none;stroke:#800080;stroke-width:6;stroke-linecap:square;stroke-dasharray:14.6339,14.6339,6;}
</style>
<g>
	<rect id="canvas_background" x="-1" y="-1" class="st0" width="100" height="100"/>
</g>
<g>
	<polygon id="svg_1" class="st1" points="0,25 50,0 100,25 50,50 	"/>
	<polygon id="svg_2" class="st2" points="0,25 50,50 50,100 0,75 	"/>
	<polygon id="svg_3" class="st3" points="50,50 100,25 100,75 50,100 	"/>
</g>
<g>
	<g>
		<g>
			<polyline class="st4" points="55.4,2.7 50,0 44.6,2.7 			"/>
			<line class="st5" x1="31.5" y1="9.2" x2="11.9" y2="19"/>
			<polyline class="st4" points="5.4,22.3 0,25 0,31 			"/>
			<line class="st6" x1="0" y1="43.7" x2="0" y2="62.7"/>
			<polyline class="st4" points="0,69 0,75 5.4,77.7 			"/>
			<line class="st5" x1="18.5" y1="84.2" x2="38.1" y2="94"/>
			<polyline class="st4" points="44.6,97.3 50,100 55.4,97.3 			"/>
			<line class="st5" x1="68.5" y1="90.8" x2="88.1" y2="81"/>
			<polyline class="st4" points="94.6,77.7 100,75 100,69 			"/>
			<line class="st6" x1="100" y1="56.3" x2="100" y2="37.3"/>
			<polyline class="st4" points="100,31 100,25 94.6,22.3 			"/>
			<line class="st7" x1="81.5" y1="15.8" x2="61.9" y2="6"/>
		</g>
	</g>
	<g id="svg_4_00000027579871364810248300000005336687325660685196_">
		<path class="st0" d="M50,6"/>
	</g>
	<g id="svg_4_00000103948351481186478030000015221319241267073680_">
		<path class="st0" d="M90,75"/>
	</g>
</g>
</svg>
