<?xml version="1.0" encoding="utf-8"?>
<!-- Generator: Adobe Illustrator 27.5.0, SVG Export Plug-In . SVG Version: 6.00 Build 0)  -->
<svg version="1.1" id="图层_1" xmlns="http://www.w3.org/2000/svg" xmlns:xlink="http://www.w3.org/1999/xlink" x="0px" y="0px"
	 viewBox="0 0 150 150" style="enable-background:new 0 0 150 150;" xml:space="preserve">
<style type="text/css">
	.st0{fill:#FFFFFF;}
	.st1{fill:#D3D3D3;}
	.st2{fill:#808080;}
	.st3{fill:none;stroke:#800080;stroke-width:6;stroke-linecap:square;}
	.st4{fill:none;stroke:#800080;stroke-width:6;stroke-linecap:square;stroke-dasharray:14.6339,14.6339;}
	.st5{fill:none;stroke:#800080;stroke-width:6;stroke-linecap:square;stroke-dasharray:12.6667,12.6667;}
	.st6{fill:none;stroke:#800080;stroke-width:6;stroke-linecap:square;stroke-dasharray:14.6339,14.6339,6;}
	.st7{fill:none;}
</style>
<g>
	<polygon id="svg_1" class="st0" points="25,50 75,25 125,50 75,75 	"/>
	<polygon id="svg_2" class="st1" points="25,50 75,75 75,125 25,100 	"/>
	<polygon id="svg_3" class="st2" points="75,75 125,50 125,100 75,125 	"/>
</g>
<g>
	<g>
		<g>
			<polyline class="st3" points="80.4,27.7 75,25 69.6,27.7 			"/>
			<line class="st4" x1="56.5" y1="34.2" x2="36.9" y2="44"/>
			<polyline class="st3" points="30.4,47.3 25,50 25,56 			"/>
			<line class="st5" x1="25" y1="68.7" x2="25" y2="87.7"/>
			<polyline class="st3" points="25,94 25,100 30.4,102.7 			"/>
			<line class="st4" x1="43.5" y1="109.2" x2="63.1" y2="119"/>
			<polyline class="st3" points="69.6,122.3 75,125 80.4,122.3 			"/>
			<line class="st4" x1="93.5" y1="115.8" x2="113.1" y2="106"/>
			<polyline class="st3" points="119.6,102.7 125,100 125,94 			"/>
			<line class="st5" x1="125" y1="81.3" x2="125" y2="62.3"/>
			<polyline class="st3" points="125,56 125,50 119.6,47.3 			"/>
			<line class="st6" x1="106.5" y1="40.8" x2="86.9" y2="31"/>
		</g>
	</g>
	<g id="svg_4_00000027579871364810248300000005336687325660685196_">
		<path class="st7" d="M75,31"/>
	</g>
	<g id="svg_4_00000103948351481186478030000015221319241267073680_">
		<path class="st7" d="M115,100"/>
	</g>
</g>
</svg>
