<?xml version="1.0" encoding="utf-8"?>
<!-- Generator: Adobe Illustrator 27.5.0, SVG Export Plug-In . SVG Version: 6.00 Build 0)  -->
<svg version="1.1" id="图层_1" xmlns="http://www.w3.org/2000/svg" xmlns:xlink="http://www.w3.org/1999/xlink" x="0px" y="0px"
	 viewBox="0 0 150 150" style="enable-background:new 0 0 150 150;" xml:space="preserve">
<style type="text/css">
	.st0{fill:#90EE90;}
	.st1{fill:#008000;}
	.st2{fill:#006400;}
	.st3{fill:none;stroke:#800080;stroke-width:6;stroke-linecap:square;}
	.st4{fill:none;stroke:#800080;stroke-width:6;stroke-linecap:square;stroke-dasharray:14.6339,14.6339;}
	.st5{fill:none;stroke:#800080;stroke-width:6;stroke-linecap:square;stroke-dasharray:12.6667,12.6667;}
	.st6{fill:none;stroke:#800080;stroke-width:6;stroke-linecap:square;stroke-dasharray:14.6339,14.6339,6;}
	.st7{fill:none;}
</style>
<g>
	<polygon id="svg_1" class="st0" points="25,50 75,25 125,50 75,75 	"/>
	<polygon id="svg_2" class="st1" points="25,50 75,75 75,125 25,100 	"/>
	<polygon id="svg_3" class="st2" points="75,75 125,50 125,100 75,125 	"/>
</g>
<g>
	<g>
		<g>
			<polyline class="st3" points="80.4,27.6 75,24.9 69.6,27.6 			"/>
			<line class="st4" x1="56.5" y1="34.1" x2="36.9" y2="43.9"/>
			<polyline class="st3" points="30.4,47.2 25,49.9 25,55.9 			"/>
			<line class="st5" x1="25" y1="68.6" x2="25" y2="87.6"/>
			<polyline class="st3" points="25,93.9 25,99.9 30.4,102.6 			"/>
			<line class="st4" x1="43.5" y1="109.1" x2="63.1" y2="118.9"/>
			<polyline class="st3" points="69.6,122.2 75,124.9 80.4,122.2 			"/>
			<line class="st4" x1="93.5" y1="115.7" x2="113.1" y2="105.9"/>
			<polyline class="st3" points="119.6,102.6 125,99.9 125,93.9 			"/>
			<line class="st5" x1="125" y1="81.2" x2="125" y2="62.2"/>
			<polyline class="st3" points="125,55.9 125,49.9 119.6,47.2 			"/>
			<line class="st6" x1="106.5" y1="40.7" x2="86.9" y2="30.9"/>
		</g>
	</g>
	<g id="svg_4_00000027579871364810248300000005336687325660685196_">
		<path class="st7" d="M75,30.9"/>
	</g>
	<g id="svg_4_00000103948351481186478030000015221319241267073680_">
		<path class="st7" d="M115,99.9"/>
	</g>
</g>
</svg>
