<?xml version="1.0" encoding="utf-8"?>
<!-- Generator: Adobe Illustrator 27.5.0, SVG Export Plug-In . SVG Version: 6.00 Build 0)  -->
<svg version="1.1" id="图层_1" xmlns="http://www.w3.org/2000/svg" xmlns:xlink="http://www.w3.org/1999/xlink" x="0px" y="0px"
	 viewBox="0 0 150 150" style="enable-background:new 0 0 150 150;" xml:space="preserve">
<style type="text/css">
	.st0{fill:#FFE3BF;}
	.st1{fill:none;stroke:#000000;stroke-width:5;stroke-miterlimit:10;}
</style>
<g>
	<path class="st0" d="M56.4,49.4L28.6,37.6V20.8L56.4,9h39.3l27.8,11.8v16.7L95.7,49.4H56.4z M95.7,141l27.8-11.8v-16.7l-27.8-11.8
		H56.4l-27.8,11.8v16.7L56.4,141H95.7z M28.6,37.6v91.6 M56.4,49.4V141 M95.7,49.4V141 M123.4,37.6v91.6"/>
	<path class="st1" d="M56.4,49.4L28.6,37.6V20.8L56.4,9h39.3l27.8,11.8v16.7L95.7,49.4H56.4z M95.7,141l27.8-11.8v-16.7l-27.8-11.8
		H56.4l-27.8,11.8v16.7L56.4,141H95.7z M28.6,37.6v91.6 M56.4,49.4V141 M95.7,49.4V141 M123.4,37.6v91.6"/>
</g>
<rect x="31.4" y="39.2" class="st0" width="90.4" height="78.6"/>
<g>
	<path class="st0" d="M56.4,49.4L28.6,37.6V20.8L56.4,9h39.3l27.8,11.8v16.7L95.7,49.4H56.4z M56.4,100.6 M97.2,101.3l-1.5-0.7
		 M121.8,111.7 M28.6,112.4v16.7L56.4,141h39.3l27.8-11.8v-16.7l-1.6-0.7 M30.2,111.7l-1.6,0.7 M30.2,111.7 M42.6,106.5 M28.6,37.6
		v91.6 M56.4,100.6V141 M56.4,49.4v51.2 M95.7,100.6V141 M95.7,49.4v51.2 M123.4,37.6v91.6"/>
	<path class="st1" d="M56.4,49.4L28.6,37.6V20.8L56.4,9h39.3l27.8,11.8v16.7L95.7,49.4H56.4z M56.4,100.6 M97.2,101.3l-1.5-0.7
		 M121.8,111.7 M28.6,112.4v16.7L56.4,141h39.3l27.8-11.8v-16.7l-1.6-0.7 M30.2,111.7l-1.6,0.7 M30.2,111.7 M42.6,106.5 M28.6,37.6
		v91.6 M56.4,100.6V141 M56.4,49.4v51.2 M95.7,100.6V141 M95.7,49.4v51.2 M123.4,37.6v91.6"/>
</g>
</svg>
