<?xml version="1.0" encoding="utf-8"?>
<!-- Generator: Adobe Illustrator 27.5.0, SVG Export Plug-In . SVG Version: 6.00 Build 0)  -->
<svg version="1.1" id="图层_1" xmlns="http://www.w3.org/2000/svg" xmlns:xlink="http://www.w3.org/1999/xlink" x="0px" y="0px"
	 viewBox="0 0 150 150" style="enable-background:new 0 0 150 150;" xml:space="preserve">
<style type="text/css">
	.st0{fill:#FFE3BF;}
	.st1{fill:none;stroke:#800080;stroke-width:12;stroke-miterlimit:10;}
	.st2{fill:none;stroke:#800080;stroke-width:12;stroke-miterlimit:10;stroke-dasharray:10.9527,5.4764;}
	.st3{fill:none;stroke:#800080;stroke-width:12;stroke-miterlimit:10;stroke-dasharray:12.2457,6.1229;}
	.st4{fill:none;stroke:#000000;stroke-width:5;stroke-miterlimit:10;}
</style>
<g>
	<path class="st0" d="M56.4,49.4L28.6,37.6V20.8L56.4,9h39.3l27.8,11.8v16.7L95.7,49.4H56.4z M95.7,141l27.8-11.8v-16.7l-27.8-11.8
		H56.4l-27.8,11.8v16.7L56.4,141H95.7z M28.6,37.6v91.6 M56.4,49.4V141 M95.7,49.4V141 M123.4,37.6v91.6"/>
	<g>
		<g>
			<polyline class="st1" points="34.2,39.9 28.6,37.6 28.6,31.6 			"/>
			<polyline class="st1" points="28.6,26.8 28.6,20.8 34.2,18.5 			"/>
			<polyline class="st2" points="39.2,16.3 56.4,9 95.7,9 115.4,17.4 			"/>
			<polyline class="st1" points="117.9,18.5 123.4,20.8 123.4,26.8 			"/>
			<polyline class="st1" points="123.4,31.6 123.4,37.6 117.9,39.9 			"/>
			<polyline class="st2" points="112.9,42.1 95.7,49.4 56.4,49.4 36.7,41 			"/>
		</g>
		<g>
			<polyline class="st1" points="117.9,131.5 123.4,129.2 123.4,123.2 			"/>
			<polyline class="st1" points="123.4,118.4 123.4,112.4 117.9,110.1 			"/>
			<polyline class="st2" points="112.9,107.9 95.7,100.6 56.4,100.6 36.7,109 			"/>
			<polyline class="st1" points="34.2,110.1 28.6,112.4 28.6,118.4 			"/>
			<polyline class="st1" points="28.6,123.2 28.6,129.2 34.2,131.5 			"/>
			<polyline class="st2" points="39.2,133.7 56.4,141 95.7,141 115.4,132.6 			"/>
		</g>
		<g>
			<line class="st1" x1="28.6" y1="37.6" x2="28.6" y2="43.6"/>
			<line class="st3" x1="28.6" y1="49.7" x2="28.6" y2="120.1"/>
			<line class="st1" x1="28.6" y1="123.2" x2="28.6" y2="129.2"/>
		</g>
		<g>
			<line class="st1" x1="56.4" y1="49.4" x2="56.4" y2="55.4"/>
			<line class="st3" x1="56.4" y1="61.5" x2="56.4" y2="131.9"/>
			<line class="st1" x1="56.4" y1="135" x2="56.4" y2="141"/>
		</g>
		<g>
			<line class="st1" x1="95.7" y1="49.4" x2="95.7" y2="55.4"/>
			<line class="st3" x1="95.7" y1="61.5" x2="95.7" y2="131.9"/>
			<line class="st1" x1="95.7" y1="135" x2="95.7" y2="141"/>
		</g>
		<g>
			<line class="st1" x1="123.4" y1="37.6" x2="123.4" y2="43.6"/>
			<line class="st3" x1="123.4" y1="49.7" x2="123.4" y2="120.1"/>
			<line class="st1" x1="123.4" y1="123.2" x2="123.4" y2="129.2"/>
		</g>
	</g>
	<path class="st4" d="M56.4,49.4L28.6,37.6V20.8L56.4,9h39.3l27.8,11.8v16.7L95.7,49.4H56.4z M95.7,141l27.8-11.8v-16.7l-27.8-11.8
		H56.4l-27.8,11.8v16.7L56.4,141H95.7z M28.6,37.6v91.6 M56.4,49.4V141 M95.7,49.4V141 M123.4,37.6v91.6"/>
</g>
<rect x="31.4" y="39.2" class="st0" width="90.4" height="78.6"/>
<g>
	<path class="st0" d="M56.4,48.9L28.6,37V20.3L56.4,8.5h39.3l27.8,11.8V37L95.7,48.9H56.4z M56.4,100.1 M97.2,100.7l-1.5-0.7
		 M121.8,111.2 M28.6,111.9v16.7l27.8,11.8h39.3l27.8-11.8v-16.7l-1.6-0.7 M30.2,111.2l-1.6,0.7 M30.2,111.2 M42.6,106 M28.6,37
		v91.6 M56.4,100.1v40.4 M56.4,48.9v51.2 M95.7,100.1v40.4 M95.7,48.9v51.2 M123.4,37v91.6"/>
	<path class="st4" d="M56.4,48.9L28.6,37V20.3L56.4,8.5h39.3l27.8,11.8V37L95.7,48.9H56.4z M56.4,100.1 M97.2,100.7l-1.5-0.7
		 M121.8,111.2 M28.6,111.9v16.7l27.8,11.8h39.3l27.8-11.8v-16.7l-1.6-0.7 M30.2,111.2l-1.6,0.7 M30.2,111.2 M42.6,106 M28.6,37
		v91.6 M56.4,100.1v40.4 M56.4,48.9v51.2 M95.7,100.1v40.4 M95.7,48.9v51.2 M123.4,37v91.6"/>
</g>
</svg>
