<?xml version="1.0" encoding="utf-8"?>
<!-- Generator: Adobe Illustrator 27.5.0, SVG Export Plug-In . SVG Version: 6.00 Build 0)  -->
<svg version="1.1" id="图层_1" xmlns="http://www.w3.org/2000/svg" xmlns:xlink="http://www.w3.org/1999/xlink" x="0px" y="0px"
	 viewBox="0 0 100 100" style="enable-background:new 0 0 100 100;" xml:space="preserve">
<style type="text/css">
	.st0{fill:none;}
	.st1{fill:#1E1E1E;}
	.st2{fill:#323232;}
	.st3{fill:none;stroke:#800080;stroke-width:6;stroke-linecap:square;}
	.st4{fill:none;stroke:#800080;stroke-width:6;stroke-linecap:square;stroke-dasharray:14.6339,14.6339;}
	.st5{fill:none;stroke:#800080;stroke-width:6;stroke-linecap:square;stroke-dasharray:12.6667,12.6667;}
	.st6{fill:none;stroke:#800080;stroke-width:6;stroke-linecap:square;stroke-dasharray:14.6339,14.6339,6;}
</style>
<g>
	<rect id="canvas_background" x="-1" y="-1" class="st0" width="100" height="100"/>
</g>
<g>
	<polygon id="svg_1" class="st1" points="0,25 50,0 100,25 50,50 	"/>
	<polygon id="svg_2" points="0,25 50,50 50,100 0,75 	"/>
	<polygon id="svg_3" class="st2" points="50,50 100,25 100,75 50,100 	"/>
</g>
<g>
	<g>
		<g>
			<polyline class="st3" points="55.4,2.6 50,-0.1 44.6,2.6 			"/>
			<line class="st4" x1="31.5" y1="9.1" x2="11.9" y2="18.9"/>
			<polyline class="st3" points="5.4,22.2 0,24.9 0,30.9 			"/>
			<line class="st5" x1="0" y1="43.6" x2="0" y2="62.6"/>
			<polyline class="st3" points="0,68.9 0,74.9 5.4,77.6 			"/>
			<line class="st4" x1="18.5" y1="84.1" x2="38.1" y2="93.9"/>
			<polyline class="st3" points="44.6,97.2 50,99.9 55.4,97.2 			"/>
			<line class="st4" x1="68.5" y1="90.7" x2="88.1" y2="80.9"/>
			<polyline class="st3" points="94.6,77.6 100,74.9 100,68.9 			"/>
			<line class="st5" x1="100" y1="56.2" x2="100" y2="37.2"/>
			<polyline class="st3" points="100,30.9 100,24.9 94.6,22.2 			"/>
			<line class="st6" x1="81.5" y1="15.7" x2="61.9" y2="5.9"/>
		</g>
	</g>
	<g id="svg_4_00000027579871364810248300000005336687325660685196_">
		<path class="st0" d="M50,5.9"/>
	</g>
	<g id="svg_4_00000103948351481186478030000015221319241267073680_">
		<path class="st0" d="M90,74.9"/>
	</g>
</g>
</svg>
