<svg xmlns="http://www.w3.org/2000/svg" width="291" height="324" viewBox="0 0 291 324" version="1.1"><path d="M 146.339 25.120 C 144.651 27.197, 142.240 34.959, 140.909 42.602 C 140.125 47.104, 139.952 54.041, 140.398 63.059 L 141.073 76.704 135.641 80.806 C 130.391 84.769, 130.189 84.833, 129.618 82.704 C 129.293 81.492, 129.021 79.263, 129.014 77.750 C 129.006 76.237, 128.608 75, 128.129 75 C 126.945 75, 125.815 85.695, 126.543 90.012 C 128.019 98.757, 127.088 98.472, 136.173 92.955 C 140.811 90.138, 145.538 88, 147.130 88 C 148.683 88, 153.229 90.003, 157.341 92.500 C 161.418 94.975, 165.207 97, 165.761 97 C 167.250 97, 168.275 86.678, 167.473 79.765 C 166.686 72.988, 165.041 73.648, 165.015 80.750 C 165.007 83.088, 164.756 85, 164.457 85 C 164.158 85, 161.498 83.175, 158.544 80.945 L 153.174 76.891 153.730 61.640 C 154.318 45.542, 153.089 36.320, 149.197 27.620 C 147.801 24.500, 147.241 24.010, 146.339 25.120" stroke="none" fill="#ffffff" fill-rule="evenodd"/><path d="M 140.079 43.583 C 140.127 44.748, 140.364 44.985, 140.683 44.188 C 140.972 43.466, 140.936 42.603, 140.604 42.271 C 140.272 41.939, 140.036 42.529, 140.079 43.583 M 154.320 54 C 154.320 57.575, 154.502 59.038, 154.723 57.250 C 154.945 55.462, 154.945 52.538, 154.723 50.750 C 154.502 48.962, 154.320 50.425, 154.320 54 M 140.232 69 C 140.232 70.925, 140.438 71.713, 140.689 70.750 C 140.941 69.787, 140.941 68.213, 140.689 67.250 C 140.438 66.287, 140.232 67.075, 140.232 69 M 153.232 72 C 153.232 73.925, 153.438 74.713, 153.689 73.750 C 153.941 72.787, 153.941 71.213, 153.689 70.250 C 153.438 69.287, 153.232 70.075, 153.232 72 M 165.459 74.067 C 165.096 74.653, 165.014 75.348, 165.276 75.610 C 165.538 75.872, 166.019 75.392, 166.345 74.543 C 167.021 72.781, 166.445 72.471, 165.459 74.067 M 153 76.378 C 153 76.585, 153.787 77.373, 154.750 78.128 C 156.336 79.371, 156.371 79.336, 155.128 77.750 C 153.821 76.084, 153 75.555, 153 76.378 M 167.079 78.583 C 167.127 79.748, 167.364 79.985, 167.683 79.188 C 167.972 78.466, 167.936 77.603, 167.604 77.271 C 167.272 76.939, 167.036 77.529, 167.079 78.583 M 126.158 80 C 126.158 81.375, 126.385 81.938, 126.662 81.250 C 126.940 80.563, 126.940 79.438, 126.662 78.750 C 126.385 78.063, 126.158 78.625, 126.158 80 M 129.158 80 C 129.158 81.375, 129.385 81.938, 129.662 81.250 C 129.940 80.563, 129.940 79.438, 129.662 78.750 C 129.385 78.063, 129.158 78.625, 129.158 80 M 164.136 81.809 C 164.046 83.345, 163.581 83.882, 162.750 83.412 C 161.758 82.852, 161.754 82.981, 162.733 84.037 C 164.352 85.782, 165.273 84.759, 164.717 81.836 L 164.272 79.500 164.136 81.809 M 142.250 89.220 C 141.012 89.817, 140 90.765, 140 91.327 C 140 93.190, 131.791 108.377, 126.393 116.500 C 117.345 130.116, 108.212 140.892, 92.051 157.020 C 69.680 179.347, 40.948 202.658, 10.730 223 C 4.928 226.906, 1.059 230.184, 1.037 231.212 C 0.958 234.870, 5.256 244.009, 9.118 248.397 C 11.347 250.929, 13.518 253, 13.944 253 C 15.026 253, 34.784 238.147, 45 229.654 C 60.240 216.984, 77.134 201.771, 91.813 187.500 C 99.732 179.800, 106.701 173.321, 107.299 173.102 C 109.659 172.239, 86.908 202.646, 70.344 222.493 C 64.380 229.639, 53.223 241.932, 45.551 249.811 C 34.605 261.052, 31.914 264.336, 33.051 265.066 C 43.965 272.072, 129.824 320.891, 133.500 322.181 C 139.501 324.286, 150 324.506, 156.149 322.656 C 159.332 321.698, 257.289 266.246, 260.893 263.362 C 261.109 263.189, 255.934 257.510, 249.393 250.741 C 235.152 236.006, 221.292 219.994, 208.741 203.781 C 197.149 188.807, 187.046 174.774, 187.020 173.612 C 187.009 173.124, 195.439 180.999, 205.754 191.112 C 216.069 201.225, 231.126 215.179, 239.215 222.119 C 254.463 235.204, 276.187 252, 277.862 252 C 280.886 252, 288.690 238.542, 289.626 231.714 L 290.211 227.441 281.679 221.763 C 268.707 213.130, 238.897 190.448, 226 179.398 C 211.258 166.766, 189.426 144.898, 180.676 134 C 171.321 122.347, 161.937 108.071, 157.341 98.500 C 155.229 94.100, 152.825 89.952, 152 89.282 C 150.161 87.789, 145.283 87.758, 142.250 89.220 M 126.158 91 C 126.158 92.375, 126.385 92.938, 126.662 92.250 C 126.940 91.563, 126.940 90.438, 126.662 89.750 C 126.385 89.063, 126.158 89.625, 126.158 91 M 167.079 92.583 C 167.127 93.748, 167.364 93.985, 167.683 93.188 C 167.972 92.466, 167.936 91.603, 167.604 91.271 C 167.272 90.939, 167.036 91.529, 167.079 92.583" stroke="none" fill="#fbbd8e" fill-rule="evenodd"/><path d="M 136.500 1.399 C 130.310 2.921, 136.607 -0.539, 71 37.385 C 40.475 55.029, 13.810 70.990, 11.745 72.854 C 9.671 74.725, 6.313 79.634, 4.245 83.818 L 0.500 91.394 0.217 160.197 C 0.005 211.883, 0.223 229, 1.094 229 C 2.491 229, 23.928 214.099, 40.462 201.636 C 60.173 186.777, 75.624 173.414, 92.051 157.020 C 108.212 140.892, 117.345 130.116, 126.393 116.500 C 131.868 108.261, 140.526 92.192, 139.852 91.519 C 139.644 91.310, 137.026 92.683, 134.035 94.568 C 130.784 96.618, 128.233 97.633, 127.691 97.091 C 125.470 94.870, 125.736 74, 127.985 74 C 128.459 74, 129.219 76.268, 129.674 79.041 L 130.500 84.082 135.527 80.372 L 140.554 76.662 140.165 60.544 C 139.862 48.005, 140.135 42.990, 141.392 37.963 C 143.467 29.669, 146.033 23.847, 147.415 24.297 C 149.162 24.867, 152.714 35.839, 153.955 44.500 C 154.722 49.854, 154.827 56.436, 154.270 64.400 L 153.439 76.300 158.469 80.283 L 163.500 84.266 164.347 79.883 C 165.717 72.789, 166.167 72.183, 167.230 76 C 168.243 79.640, 167.867 96.467, 166.747 97.587 C 166.395 97.938, 163.501 96.632, 160.316 94.684 C 157.131 92.736, 154.378 91.289, 154.199 91.468 C 153.493 92.173, 162.154 108.096, 167.843 116.553 C 181.067 136.210, 202.013 158.845, 226 179.398 C 243.165 194.105, 280.852 222.176, 289.750 226.881 L 292 228.070 291.900 160.785 C 291.845 123.778, 291.477 94.625, 291.081 96 C 290.473 98.113, 290.276 97.768, 289.806 93.765 C 289.049 87.324, 284.747 78.902, 279.589 73.761 C 276.640 70.822, 257.502 59.200, 217.896 36.299 C 151.827 -1.903, 151.137 -2.199, 136.500 1.399 M 0.472 162 C 0.472 199.125, 0.597 214.313, 0.750 195.750 C 0.902 177.188, 0.902 146.813, 0.750 128.250 C 0.597 109.688, 0.472 124.875, 0.472 162 M 91.844 187.413 C 68.871 209.891, 41.180 233.678, 20.702 248.527 C 12.924 254.167, 12.646 253.295, 24.441 260.230 L 31.383 264.312 45.441 249.905 C 53.174 241.981, 64.380 229.649, 70.344 222.499 C 87.023 202.505, 109.120 172.959, 107.338 173.036 C 106.877 173.056, 99.905 179.525, 91.844 187.413 M 187.020 173.612 C 187.046 174.774, 197.149 188.807, 208.741 203.781 C 221.280 219.979, 235.149 236.003, 249.347 250.693 L 261.193 262.952 264.347 261.333 C 266.081 260.443, 269.904 258.183, 272.842 256.311 L 278.184 252.907 266.172 243.925 C 248.401 230.638, 226.886 211.831, 205.754 191.112 C 195.439 180.999, 187.009 173.124, 187.020 173.612" stroke="none" fill="#e65a49" fill-rule="evenodd"/></svg>