<?xml version="1.0" encoding="utf-8"?>
<!-- Generator: Adobe Illustrator 27.5.0, SVG Export Plug-In . SVG Version: 6.00 Build 0)  -->
<svg version="1.1" id="图层_1" xmlns="http://www.w3.org/2000/svg" xmlns:xlink="http://www.w3.org/1999/xlink" x="0px" y="0px"
	 viewBox="0 0 200 200" style="enable-background:new 0 0 200 200;" xml:space="preserve">
<style type="text/css">
	.st0{fill:#FF0000;}
	.st1{fill:#800080;}
	.st2{fill:none;stroke:#000000;stroke-width:10;}
</style>
<g>
	<polygon class="st0" points="100,50 50,150 150,150 	"/>
	<path class="st1" d="M85.7,42.8l-5.4,10.7l14.3,7.2L100,50l0,0L85.7,42.8L85.7,42.8z M75,64.3L69.6,75l14.3,7.2l0,0l0.1-0.1
		c0,0,0,0,0,0l0-0.1c0,0,0,0,0,0l0,0l0,0l0,0c0,0,0,0,0,0l0,0c0,0,0,0,0,0l0,0c0,0,0,0,0,0l0,0c0,0,0,0,0,0l0,0l0,0l0,0l0,0l0,0
		c0,0,0,0,0,0l0,0c0,0,0,0,0,0l0,0c0,0,0,0,0,0l0,0c0,0,0,0,0,0l0,0c0,0,0,0,0,0l0,0c0,0,0,0,0,0l0,0l0,0l0,0c0,0,0,0,0,0l0,0
		c0,0,0,0,0,0l0,0c1-1.9,5.2-10.3,5.2-10.3L75,64.3L75,64.3z M64.2,85.8l-5.4,10.7l14.3,7.2l5.4-10.7l0,0L64.2,85.8L64.2,85.8z
		 M53.5,107.2L48.1,118l14.3,7.2c0,0,0,0,0,0l0,0l0,0l0,0l0,0l0,0c0,0,0,0,0,0l0,0l0,0l0,0l0,0l0,0l0,0l0,0c0,0,0,0,0,0l0,0l0,0
		l0-0.1c0,0,0,0,0,0l0,0l0,0l0,0c0,0,0,0,0,0l0,0c0,0,0,0,0,0l0,0c0,0,0,0,0,0l0,0c0,0,0,0,0,0l0,0c0.6-1.3,5.3-10.6,5.3-10.6
		L53.5,107.2L53.5,107.2z M42.8,128.7l-5.4,10.7l14.3,7.2l5.4-10.7l0,0l0,0l0,0L42.8,128.7L42.8,128.7z M70.2,150h-12v16h12V150
		L70.2,150z M94.2,150h-12v16h12V150L94.2,150z M118.2,150h-12v16h12V150L118.2,150z M142.2,150h-12v16h12V150L142.2,150z
		 M157.1,128.4l-14.3,7.2l0,0l0,0l0,0l0,0l0,0l0,0c0,0,0,0,0,0l0.1,0.2l0,0l0.1,0.2l0,0l0,0l0,0l0,0l0,0l0,0l0,0l0.1,0.2l0,0l0.5,1
		l0,0l0,0l0,0l0,0l0,0l0.8,1.7l0,0l0.1,0.3c0,0,0,0,0,0l0,0.1c0,0,0,0,0,0l0,0.1l0,0l0,0l0,0l0,0l0,0l0,0.1c0,0,0,0,0,0l0.6,1.1l0,0
		l0.1,0.1l0,0l0,0l0,0l0,0.1l0,0l0,0c0,0,0,0,0,0l0,0l0,0l0,0l0,0l0,0l0,0l0,0.1l0,0l0.1,0.3c0,0,0,0,0,0l0.4,0.8l0,0l0,0
		c0,0,0,0,0,0l0,0l0,0l0,0.1l0,0l0,0l0,0l0,0l0,0l0,0l0,0l0.2,0.5c0,0,0,0,0,0l0,0c0,0,0,0,0,0l0,0l0,0l0.8,1.5c0,0,0,0,0,0l0,0l0,0
		l0.1,0.1c0,0,0,0,0,0l0.1,0.2l0,0l0,0.1l0,0l0,0l0,0l0.1,0.3c0,0,0,0,0,0l0.3,0.6c0,0,0,0,0,0l0,0l0,0l0,0l0,0l0.1,0.2c0,0,0,0,0,0
		l0,0l0,0l0,0c0,0,0,0,0,0l0,0c0,0,0,0,0,0l0,0l0,0l0,0c0,0,0,0,0,0l0,0l0,0l0,0c0,0,0,0,0,0l0,0c0,0,0,0,0,0l0.1,0.2l0,0l0,0l0,0
		l0,0c0,0,0,0,0,0l14.3-7.2L157.1,128.4L157.1,128.4z M146.3,106.9L132,114l0,0l0,0l0,0l5.4,10.7l14.3-7.2L146.3,106.9L146.3,106.9z
		 M135.6,85.4l-14.3,7.2c0,0,4.7,9.3,5.3,10.6l0,0c0,0,0,0,0,0l0,0c0,0,0,0,0,0l0,0c0,0,0,0,0,0l0,0c0,0,0,0,0,0l0,0l0,0l0,0
		c0,0,0,0,0,0l0,0.1l0,0l0,0c0,0,0,0,0,0l0,0l0,0l0,0l0,0l0,0l0,0l0,0c0,0,0,0,0,0l0,0l0,0l0,0l0,0l0,0c0,0,0,0,0,0l14.3-7.2
		L135.6,85.4L135.6,85.4z M124.9,64l-14.3,7.2l0,0l5.4,10.7l14.3-7.2L124.9,64L124.9,64z M114.3,42.8L100,50l0,0l0.2,0.4l0,0
		l0.6,1.2l0,0l0.8,1.7l0,0l1,1.9l0,0l1,1.9l0,0l0.8,1.7l0,0l0.6,1.2l0,0l0.2,0.4l0,0l14.3-7.2L114.3,42.8L114.3,42.8z"/>
	<polygon class="st2" points="100,50 50,150 150,150 	"/>
</g>
</svg>
