<?xml version="1.0" encoding="utf-8"?>
<!-- Generator: Adobe Illustrator 27.5.0, SVG Export Plug-In . SVG Version: 6.00 Build 0)  -->
<svg version="1.1" id="图层_1" xmlns="http://www.w3.org/2000/svg" xmlns:xlink="http://www.w3.org/1999/xlink" x="0px" y="0px"
	 viewBox="0 0 100 100" style="enable-background:new 0 0 100 100;" xml:space="preserve">
<style type="text/css">
	.st0{fill:none;}
	.st1{fill:#808080;}
	.st2{fill:#D3D3D3;}
	.st3{fill:#A9A9A9;}
	.st4{fill:none;stroke:#800080;stroke-width:5;}
	.st5{fill:none;stroke:#800080;stroke-width:6;stroke-linecap:square;}
	.st6{fill:none;stroke:#800080;stroke-width:6;stroke-linecap:square;stroke-dasharray:14.6339,14.6339;}
	.st7{fill:none;stroke:#800080;stroke-width:6;stroke-linecap:square;stroke-dasharray:12.6667,12.6667;}
</style>
<g>
	<rect id="canvas_background" x="-1" y="-1" class="st0" width="100" height="100"/>
</g>
<g>
	<g>
		<polygon class="st1" points="0,25 0,75 50,100 50,50 		"/>
		<g>
			<polygon class="st2" points="50,0 0,25 50,50 100,25 			"/>
			<polygon class="st3" points="50,50 50,100 100,75 100,25 			"/>
		</g>
	</g>
	<polygon id="svg_4" class="st4" points="9,75 90,75 50,6 	"/>
</g>
<g>
	
		<rect id="canvas_background_00000013168671719036872470000017746479562979085228_" x="8" y="6.9" class="st0" width="100" height="100"/>
</g>
<g>
	<g>
		<g>
			<polyline class="st5" points="55.4,1.7 50,-1 44.6,1.7 			"/>
			<line class="st6" x1="31.5" y1="8.2" x2="11.9" y2="18"/>
			<polyline class="st5" points="5.4,21.3 0,24 0,30 			"/>
			<line class="st7" x1="0" y1="42.7" x2="0" y2="61.7"/>
			<polyline class="st5" points="0,68 0,74 5.4,76.7 			"/>
			<line class="st6" x1="18.5" y1="83.2" x2="38.1" y2="93"/>
			<polyline class="st5" points="44.6,96.3 50,99 55.4,96.3 			"/>
			<line class="st6" x1="68.5" y1="89.8" x2="88.1" y2="80"/>
			<polyline class="st5" points="94.6,76.7 100,74 100,68 			"/>
			<line class="st7" x1="100" y1="55.3" x2="100" y2="36.3"/>
			<polyline class="st5" points="100,30 100,24 94.6,21.3 			"/>
			<line class="st6" x1="81.5" y1="14.8" x2="61.9" y2="5"/>
		</g>
	</g>
	<g id="svg_4_00000027579871364810248300000005336687325660685196_">
		<path class="st0" d="M50,5"/>
	</g>
	<g id="svg_4_00000103948351481186478030000015221319241267073680_">
		<path class="st0" d="M90,74"/>
	</g>
</g>
</svg>
